<?xml version="1.0" encoding="UTF-8" standalone="no"?>
<!-- Created with Inkscape (http://www.inkscape.org/) -->

<svg
   width="200"
   height="200.00188"
   viewBox="0 0 52.916667 52.917163"
   version="1.1"
   id="svg5"
   sodipodi:docname="Earth.svg"
   inkscape:version="1.1.1 (1:1.1+202109281949+c3084ef5ed)"
   xmlns:inkscape="http://www.inkscape.org/namespaces/inkscape"
   xmlns:sodipodi="http://sodipodi.sourceforge.net/DTD/sodipodi-0.dtd"
   xmlns="http://www.w3.org/2000/svg"
   xmlns:svg="http://www.w3.org/2000/svg">
  <sodipodi:namedview
     id="namedview7"
     pagecolor="#505050"
     bordercolor="#eeeeee"
     borderopacity="1"
     inkscape:pageshadow="0"
     inkscape:pageopacity="0"
     inkscape:pagecheckerboard="0"
     inkscape:document-units="px"
     showgrid="false"
     inkscape:zoom="1.5320038"
     inkscape:cx="72.780498"
     inkscape:cy="109.33393"
     inkscape:window-width="1366"
     inkscape:window-height="715"
     inkscape:window-x="0"
     inkscape:window-y="25"
     inkscape:window-maximized="1"
     inkscape:current-layer="layer1"
     inkscape:snap-page="true"
     inkscape:snap-global="false"
     fit-margin-top="0"
     fit-margin-left="0"
     fit-margin-right="0"
     fit-margin-bottom="0" />
  <defs
     id="defs2" />
  <g
     inkscape:label="Layer 1"
     inkscape:groupmode="layer"
     id="layer1"
     style="display:inline"
     transform="translate(-16.746026,-111.14982)">
    <g
       inkscape:groupmode="layer"
       id="layer2"
       inkscape:label="Layer 2" />
    <g
       id="g42090"
       transform="matrix(2.7611241,0,0,2.7611241,-79.942957,-245.17512)">
      <path
         id="circle877"
         d="m 54.182878,138.63313 a 9.5824473,9.5824473 0 0 1 -9.58245,9.58244 9.5824473,9.5824473 0 0 1 -9.58245,-9.58244 9.5824473,9.5824473 0 0 1 9.58245,-9.58245 9.5824473,9.5824473 0 0 1 9.58245,9.58245 z"
         style="fill:#79b0cf;fill-opacity:1;stroke-width:3.83298" />
      <path
         id="path29360"
         style="fill:#939300;fill-opacity:1;stroke:none;stroke-width:2.02359px;stroke-linecap:butt;stroke-linejoin:miter;stroke-opacity:1"
         d="m 138.31055,504.0957 a 36.217124,36.217124 0 0 0 -5.95899,19.87305 36.217124,36.217124 0 0 0 3.3125,15.08789 c 3.69909,-0.61241 6.94336,1.87695 6.94336,1.87695 0.17583,3.00269 3.57227,4.57813 3.57227,4.57813 2.87243,3.22325 0.89994,5.84265 -0.10157,6.83789 a 36.217124,36.217124 0 0 0 22.26172,7.82812 c 0.0151,-1.48403 0.43164,-2.56835 0.43164,-2.56835 1.73516,-3.18252 1.14649,-6.07618 1.14649,-6.07618 -1.9428,-2.33937 -7.82617,-2.25 -7.82617,-2.25 -4.98616,-4.77346 -11.13672,-4.3789 -11.13672,-4.3789 -6.69982,-2.19459 -2.71485,-6.98047 -2.71485,-6.98047 7.10434,-3.11562 5.73047,-8.10156 5.73047,-8.10156 -1.17239,-3.97516 0.66992,-3.84961 0.66992,-3.84961 3.79373,-1.40032 4.15626,-3.39649 4.15626,-3.39649 -3.67787,-4.97216 -9.71485,-5.19531 -9.71485,-5.19531 -7.36268,-1.06707 -2.8418,3.75391 -2.8418,3.75391 1.36795,1.72512 -1.73046,1.19726 -1.73046,1.19726 -7.63298,-3.78281 -3.34961,-9.92578 -3.34961,-9.92578 6.44201,5.13906 6.62109,1.11719 6.62109,1.11719 0.70095,-4.67879 -9.36914,-9.375 -9.36914,-9.375 z"
         transform="scale(0.26458333)" />
      <path
         id="path31491"
         style="fill:#939300;fill-opacity:1;stroke:none;stroke-width:1.85582px;stroke-linecap:butt;stroke-linejoin:miter;stroke-opacity:1"
         d="m 171.76953,487.89648 c -13.49156,6.98682 11.3418,5.65625 11.3418,5.65625 11.76366,-0.11062 -0.51367,5.5625 -0.51367,5.5625 -11.68425,8.94679 0.12109,8.99024 0.12109,8.99024 8.86895,-6.25508 17.41602,0.77344 17.41602,0.77344 -1.62604,9.16943 -15.36524,3.49804 -15.36524,3.49804 -13.54236,12.05934 5.27149,21.375 5.27149,21.375 8.68926,8.00769 4.00904,14.17924 3.87109,15.6211 0,0 0.51649,-0.12423 0.61523,-0.14844 a 36.217124,36.217124 0 0 0 10.25782,-25.25586 36.217124,36.217124 0 0 0 -33.01563,-36.07227 z"
         transform="scale(0.26458333)" />
      <path
         id="path22579"
         style="opacity:0.2;fill:#000000;fill-opacity:1;stroke-width:3.83299"
         d="m 51.607188,132.09685 a 9.7956363,9.7956363 0 0 1 0.57671,3.30987 9.7956363,9.7956363 0 0 1 -9.79579,9.79579 9.7956363,9.7956363 0 0 1 -6.41718,-2.40399 9.5824473,9.5824473 0 0 0 8.62945,5.41724 9.5824473,9.5824473 0 0 0 9.58236,-9.58288 9.5824473,9.5824473 0 0 0 -2.57555,-6.53603 z" />
    </g>
  </g>
</svg>
