<?xml version="1.0" encoding="UTF-8" standalone="no"?>
<svg
   viewBox="0 0 64 64"
   version="1.1"
   id="svg29"
   sodipodi:docname="inner_planet.svg"
   inkscape:version="1.1.1 (1:1.1+202109281949+c3084ef5ed)"
   xmlns:inkscape="http://www.inkscape.org/namespaces/inkscape"
   xmlns:sodipodi="http://sodipodi.sourceforge.net/DTD/sodipodi-0.dtd"
   xmlns="http://www.w3.org/2000/svg"
   xmlns:svg="http://www.w3.org/2000/svg"
   xmlns:rdf="http://www.w3.org/1999/02/22-rdf-syntax-ns#"
   xmlns:cc="http://creativecommons.org/ns#"
   xmlns:dc="http://purl.org/dc/elements/1.1/">
  <defs
     id="defs33" />
  <sodipodi:namedview
     id="namedview31"
     pagecolor="#505050"
     bordercolor="#eeeeee"
     borderopacity="1"
     inkscape:pageshadow="0"
     inkscape:pageopacity="0"
     inkscape:pagecheckerboard="0"
     showgrid="false"
     inkscape:zoom="4.2421875"
     inkscape:cx="17.561694"
     inkscape:cy="30.290976"
     inkscape:window-width="1366"
     inkscape:window-height="715"
     inkscape:window-x="0"
     inkscape:window-y="25"
     inkscape:window-maximized="1"
     inkscape:current-layer="svg29" />
  <title
     id="title2">Astronomy</title>
  <path
     d="M 52.23,43 A 23,23 0 0 1 32,55 C 13.33,55 2.82,34 12.9,19.18 a 4.3,4.3 0 0 0 1.53,1.31 C 5.44,34.07 15.07,53 32,53 A 21,21 0 0 0 50.28,42.35 6.07,6.07 0 0 0 52.23,43 Z"
     id="path8"
     style="fill:#ffffff" />
  <path
     d="M 55,31.34 A 5.94,5.94 0 0 0 53,31 C 52.2,14.62 33.79,5.63 20.49,14.43 A 4.42,4.42 0 0 0 19.18,12.89 C 34,2.91 54.48,13.14 55,31.34 Z"
     id="path10"
     style="fill:#ffffff" />
  <circle
     cx="53"
     cy="37"
     r="4"
     id="circle18"
     style="fill:#0000ff" />
  <circle
     cx="16.5"
     cy="16.5"
     r="2.5"
     id="circle24"
     style="fill:#00ff00" />
  <metadata
     id="metadata1055">
    <rdf:RDF>
      <cc:Work
         rdf:about="">
        <dc:title>Astronomy</dc:title>
      </cc:Work>
    </rdf:RDF>
  </metadata>
</svg>
