<?xml version="1.0" encoding="UTF-8" standalone="no"?>
<!-- Created with Inkscape (http://www.inkscape.org/) -->

<svg
   width="200"
   height="200.00005"
   viewBox="0 0 52.916666 52.916679"
   version="1.1"
   id="svg5"
   sodipodi:docname="Moon.svg"
   inkscape:version="1.1.1 (1:1.1+202109281949+c3084ef5ed)"
   xmlns:inkscape="http://www.inkscape.org/namespaces/inkscape"
   xmlns:sodipodi="http://sodipodi.sourceforge.net/DTD/sodipodi-0.dtd"
   xmlns="http://www.w3.org/2000/svg"
   xmlns:svg="http://www.w3.org/2000/svg">
  <sodipodi:namedview
     id="namedview7"
     pagecolor="#505050"
     bordercolor="#eeeeee"
     borderopacity="1"
     inkscape:pageshadow="0"
     inkscape:pageopacity="0"
     inkscape:pagecheckerboard="0"
     inkscape:document-units="px"
     showgrid="false"
     inkscape:zoom="0.27082258"
     inkscape:cx="123.69722"
     inkscape:cy="515.09738"
     inkscape:window-width="1366"
     inkscape:window-height="715"
     inkscape:window-x="0"
     inkscape:window-y="25"
     inkscape:window-maximized="1"
     inkscape:current-layer="layer1"
     inkscape:snap-page="true"
     inkscape:snap-global="false"
     fit-margin-top="0"
     fit-margin-left="0"
     fit-margin-right="0"
     fit-margin-bottom="0" />
  <defs
     id="defs2" />
  <g
     inkscape:label="Layer 1"
     inkscape:groupmode="layer"
     id="layer1"
     style="display:inline"
     transform="translate(-41.311885,-111.23374)">
    <g
       inkscape:groupmode="layer"
       id="layer2"
       inkscape:label="Layer 2" />
    <g
       id="g42105"
       transform="matrix(6.8403243,0,0,6.8403243,-241.27482,-649.64105)">
      <path
         id="path9549"
         d="m 49.047875,115.10173 a 3.8679941,3.8679941 0 0 1 -3.867994,3.86799 3.8679941,3.8679941 0 0 1 -3.867994,-3.86799 3.8679941,3.8679941 0 0 1 3.867994,-3.868 3.8679941,3.8679941 0 0 1 3.867994,3.868 z"
         style="fill:#cccccc;stroke-width:1.5472" />
      <path
         id="path25132"
         d="m 44.377647,116.12366 a 0.90077183,0.90077183 0 0 1 -0.900772,0.90077 0.90077183,0.90077183 0 0 1 -0.900772,-0.90077 0.90077183,0.90077183 0 0 1 0.900772,-0.90078 0.90077183,0.90077183 0 0 1 0.900772,0.90078 z"
         style="fill:#b3b3b3;stroke-width:0.36031" />
      <path
         id="path25170"
         d="m 45.925156,112.66227 a 0.59122576,0.59122576 0 0 1 -0.591226,0.59122 0.59122576,0.59122576 0 0 1 -0.591226,-0.59122 0.59122576,0.59122576 0 0 1 0.591226,-0.59123 0.59122576,0.59122576 0 0 1 0.591226,0.59123 z"
         style="fill:#b3b3b3;stroke-width:0.236492" />
      <path
         id="path25172"
         d="m 47.668856,115.80673 a 0.67059962,0.67059962 0 0 1 -0.6706,0.67059 0.67059962,0.67059962 0 0 1 -0.6706,-0.67059 0.67059962,0.67059962 0 0 1 0.6706,-0.6706 0.67059962,0.67059962 0 0 1 0.6706,0.6706 z"
         style="fill:#b3b3b3;stroke-width:0.268242" />
      <path
         id="path25174"
         d="m 45.826903,114.84562 a 0.39661162,0.39661162 0 0 1 -0.396612,0.39661 0.39661162,0.39661162 0 0 1 -0.396612,-0.39661 0.39661162,0.39661162 0 0 1 0.396612,-0.39662 0.39661162,0.39661162 0 0 1 0.396612,0.39662 z"
         style="fill:#b3b3b3;stroke-width:0.158646" />
      <path
         id="path25176"
         style="fill:#b3b3b3;stroke-width:0.599607"
         d="m 173.74414,447.13672 a 1.4990046,1.4990046 0 0 0 -1.5,1.5 1.4990046,1.4990046 0 0 0 0.29883,0.89453 14.61919,14.61919 0 0 0 2.66601,-0.58008 1.4990046,1.4990046 0 0 0 0.0332,-0.31445 1.4990046,1.4990046 0 0 0 -1.49805,-1.5 z"
         transform="scale(0.26458333)" />
      <path
         id="path25178"
         d="m 46.713384,117.35115 a 0.15617599,0.15617599 0 0 1 -0.156176,0.15617 0.15617599,0.15617599 0 0 1 -0.156176,-0.15617 0.15617599,0.15617599 0 0 1 0.156176,-0.15618 0.15617599,0.15617599 0 0 1 0.156176,0.15618 z"
         style="fill:#b3b3b3;stroke-width:0.0624709" />
      <path
         id="path25180"
         style="fill:#b3b3b3;stroke-width:1.01383"
         d="m 160.53125,424.59766 a 14.61919,14.61919 0 0 0 -2.94531,4.09375 2.5345498,2.5345498 0 0 0 1.26758,0.33984 2.5345498,2.5345498 0 0 0 2.53515,-2.5332 2.5345498,2.5345498 0 0 0 -0.85742,-1.90039 z"
         transform="scale(0.26458333)" />
      <path
         id="path25182"
         d="m 44.168716,118.05239 a 0.15617599,0.15617599 0 0 1 -0.156176,0.15617 0.15617599,0.15617599 0 0 1 -0.156176,-0.15617 0.15617599,0.15617599 0 0 1 0.156176,-0.15618 0.15617599,0.15617599 0 0 1 0.156176,0.15618 z"
         style="fill:#b3b3b3;stroke-width:0.0624709" />
      <path
         id="path25184"
         style="fill:#b3b3b3;stroke-width:1.3618"
         d="m 179.8457,423.57812 a 3.404492,3.404492 0 0 0 -1.375,2.73243 3.404492,3.404492 0 0 0 3.4043,3.40429 3.404492,3.404492 0 0 0 2.16992,-0.7832 14.61919,14.61919 0 0 0 -4.19922,-5.35352 z"
         transform="scale(0.26458333)" />
      <path
         id="path25239"
         style="fill:#a6a6a6;fill-opacity:1;stroke-width:1.3618"
         d="m 164.32227,435.48828 a 3.404492,3.404492 0 0 0 -2.95704,1.7168 3.404492,3.404492 0 0 1 2.26954,-0.86914 3.404492,3.404492 0 0 1 3.40429,3.40429 3.404492,3.404492 0 0 1 -0.44726,1.6875 3.404492,3.404492 0 0 0 1.13476,-2.53515 3.404492,3.404492 0 0 0 -3.40429,-3.4043 z"
         transform="scale(0.26458333)" />
      <path
         id="path26236"
         style="fill:#a6a6a6;fill-opacity:1;stroke-width:1.01383"
         d="m 177.63086,435.16016 a 2.5345498,2.5345498 0 0 0 -2.53516,2.53515 2.5345498,2.5345498 0 0 0 0.45508,1.44727 2.5345498,2.5345498 0 0 1 -0.125,-0.78906 2.5345498,2.5345498 0 0 1 2.5332,-2.53321 2.5345498,2.5345498 0 0 1 2.08008,1.08399 2.5345498,2.5345498 0 0 0 -2.4082,-1.74414 z"
         transform="scale(0.26458333)" />
      <path
         id="path27961"
         style="fill:#a6a6a6;fill-opacity:1;stroke-width:0.893828"
         d="m 170.11523,423.94336 a 2.2345541,2.2345541 0 0 0 -1.00976,1.86719 2.2345541,2.2345541 0 0 0 2.23633,2.23437 2.2345541,2.2345541 0 0 0 1.75,-0.84765 2.2345541,2.2345541 0 0 1 -1.22461,0.36523 2.2345541,2.2345541 0 0 1 -2.23438,-2.23438 2.2345541,2.2345541 0 0 1 0.48242,-1.38476 z"
         transform="scale(0.26458333)" />
    </g>
  </g>
</svg>
