<?xml version="1.0" encoding="UTF-8" standalone="no"?>
<svg
   viewBox="0 0 64 64"
   version="1.1"
   id="svg884"
   sodipodi:docname="outer_planet.svg"
   inkscape:version="1.1.1 (1:1.1+202109281949+c3084ef5ed)"
   xmlns:inkscape="http://www.inkscape.org/namespaces/inkscape"
   xmlns:sodipodi="http://sodipodi.sourceforge.net/DTD/sodipodi-0.dtd"
   xmlns="http://www.w3.org/2000/svg"
   xmlns:svg="http://www.w3.org/2000/svg"
   xmlns:rdf="http://www.w3.org/1999/02/22-rdf-syntax-ns#"
   xmlns:cc="http://creativecommons.org/ns#"
   xmlns:dc="http://purl.org/dc/elements/1.1/">
  <defs
     id="defs888" />
  <sodipodi:namedview
     id="namedview886"
     pagecolor="#505050"
     bordercolor="#eeeeee"
     borderopacity="1"
     inkscape:pageshadow="0"
     inkscape:pageopacity="0"
     inkscape:pagecheckerboard="0"
     showgrid="false"
     inkscape:zoom="5.9993591"
     inkscape:cx="34.920397"
     inkscape:cy="39.087509"
     inkscape:window-width="1366"
     inkscape:window-height="715"
     inkscape:window-x="0"
     inkscape:window-y="25"
     inkscape:window-maximized="1"
     inkscape:current-layer="svg884" />
  <title
     id="title857">Astronomy</title>
  <path
     d="m 55.16,52.6 a 5.22,5.22 0 0 0 -1.36,-1.49 29,29 0 0 0 3,-34.09 8.31,8.31 0 0 0 1.63,-1.19 31,31 0 0 1 -3.27,36.77 z"
     id="path867"
     style="fill:#ffffff" />
  <path
     d="M 46.92,4.82 A 7.89,7.89 0 0 0 45.81,6.5 C 22.85,-6 -4.09,16.42 4.58,41.44 a 6.6,6.6 0 0 0 -1.79,1 C -6.83,15.26 22.42,-8.69 46.92,4.82 Z"
     id="path869"
     style="fill:#ffffff" />
  <path
     d="M 46.58,59.35 A 31,31 0 0 1 10.33,54.16 7.23,7.23 0 0 0 12,52.94 a 29,29 0 0 0 33.49,4.75 5.74,5.74 0 0 0 1.09,1.66 z"
     id="path871"
     style="fill:#ffffff" />
  <circle
     cx="53"
     cy="10"
     r="6"
     id="circle875"
     style="fill:#ff5555" />
  <circle
     cx="7"
     cy="48"
     r="5"
     id="circle877"
     style="fill:#c87137" />
  <circle
     cx="50.5"
     cy="55.5"
     r="3.5"
     id="circle881"
     style="fill:#cccccc" />
  <metadata
     id="metadata954">
    <rdf:RDF>
      <cc:Work
         rdf:about="">
        <dc:title>Astronomy</dc:title>
      </cc:Work>
    </rdf:RDF>
  </metadata>
</svg>
