<?xml version="1.0" encoding="UTF-8" standalone="no"?>
<svg
   viewBox="0 0 64 64"
   version="1.1"
   id="svg983"
   sodipodi:docname="sun.svg"
   inkscape:version="1.1.1 (1:1.1+202109281949+c3084ef5ed)"
   xmlns:inkscape="http://www.inkscape.org/namespaces/inkscape"
   xmlns:sodipodi="http://sodipodi.sourceforge.net/DTD/sodipodi-0.dtd"
   xmlns="http://www.w3.org/2000/svg"
   xmlns:svg="http://www.w3.org/2000/svg"
   xmlns:rdf="http://www.w3.org/1999/02/22-rdf-syntax-ns#"
   xmlns:cc="http://creativecommons.org/ns#"
   xmlns:dc="http://purl.org/dc/elements/1.1/">
  <defs
     id="defs987" />
  <sodipodi:namedview
     id="namedview985"
     pagecolor="#505050"
     bordercolor="#eeeeee"
     borderopacity="1"
     inkscape:pageshadow="0"
     inkscape:pageopacity="0"
     inkscape:pagecheckerboard="0"
     showgrid="false"
     inkscape:zoom="8.484375"
     inkscape:cx="32"
     inkscape:cy="32"
     inkscape:window-width="1366"
     inkscape:window-height="715"
     inkscape:window-x="0"
     inkscape:window-y="25"
     inkscape:window-maximized="1"
     inkscape:current-layer="svg983" />
  <title
     id="title956">Astronomy</title>
  <circle
     cx="32"
     cy="32"
     r="7"
     id="circle958"
     style="fill:#ffff00" />
  <path
     d="M 45.4,32.45 47,32 45.4,31.55 A 3.53,3.53 0 0 1 43.83,25.69 L 45,24.5 43.4,24.91 a 3.54,3.54 0 0 1 -4.3,-4.3 L 39.5,19 38.31,20.16 A 3.53,3.53 0 0 1 32.45,18.59 L 32,17 31.55,18.6 a 3.53,3.53 0 0 1 -5.86,1.57 L 24.5,19 l 0.41,1.6 a 3.54,3.54 0 0 1 -4.3,4.3 L 19,24.5 l 1.16,1.19 a 3.53,3.53 0 0 1 -1.57,5.86 L 17,32 l 1.6,0.45 a 3.53,3.53 0 0 1 1.57,5.86 L 19,39.5 20.6,39.09 a 3.54,3.54 0 0 1 4.3,4.3 L 24.5,45 25.69,43.84 a 3.53,3.53 0 0 1 5.86,1.57 L 32,47 32.45,45.4 a 3.53,3.53 0 0 1 5.86,-1.57 L 39.5,45 39.09,43.4 a 3.54,3.54 0 0 1 4.3,-4.3 l 1.6,0.41 -1.16,-1.19 A 3.53,3.53 0 0 1 45.4,32.45 Z M 32,41 a 9,9 0 1 1 9,-9 9,9 0 0 1 -9,9 z"
     id="path960"
     style="fill:#ffff66;fill-opacity:1" />
  <metadata
     id="metadata1053">
    <rdf:RDF>
      <cc:Work
         rdf:about="">
        <dc:title>Astronomy</dc:title>
      </cc:Work>
    </rdf:RDF>
  </metadata>
</svg>
